<?xml version="1.0" encoding="UTF-8" standalone="no"?>
<!-- Generator: Adobe Illustrator 19.0.0, SVG Export Plug-In . SVG Version: 6.00 Build 0)  -->

<svg
   version="1.1"
   id="Capa_1"
   x="0px"
   y="0px"
   viewBox="0 0 512 512"
   style="enable-background:new 0 0 512 512;"
   xml:space="preserve"
   sodipodi:docname="tux-dracula.svg"
   inkscape:version="1.2.1 (9c6d41e410, 2022-07-14, custom)"
   xmlns:inkscape="http://www.inkscape.org/namespaces/inkscape"
   xmlns:sodipodi="http://sodipodi.sourceforge.net/DTD/sodipodi-0.dtd"
   xmlns="http://www.w3.org/2000/svg"
   xmlns:svg="http://www.w3.org/2000/svg"><defs
   id="defs129"><inkscape:path-effect
     is_visible="true"
     id="path-effect29672-0"
     effect="spiro" /><inkscape:path-effect
     is_visible="true"
     id="path-effect29678-1"
     effect="spiro" /><inkscape:path-effect
     is_visible="true"
     id="path-effect29678-4-6"
     effect="spiro" /><inkscape:path-effect
     is_visible="true"
     id="path-effect28714-5"
     effect="spiro" /><inkscape:path-effect
     is_visible="true"
     id="path-effect29721-2"
     effect="spiro" /><inkscape:path-effect
     is_visible="true"
     id="path-effect28463-8-0"
     effect="spiro" /><inkscape:path-effect
     is_visible="true"
     id="path-effect28463-0-7"
     effect="spiro" /><linearGradient
     id="linearGradient28799-5-5"><stop
       id="stop28801-1-9"
       offset="0"
       style="stop-color:#fefefc;stop-opacity:1;" /><stop
       style="stop-color:#fefefc;stop-opacity:1"
       offset="0.75733864"
       id="stop28807-2-6" /><stop
       id="stop28803-6-3"
       offset="1"
       style="stop-color:#d4d4d4;stop-opacity:1" /></linearGradient><inkscape:path-effect
     is_visible="true"
     id="path-effect28797-8-1"
     effect="spiro" /><inkscape:path-effect
     is_visible="true"
     id="path-effect28797-81"
     effect="spiro" /><inkscape:path-effect
     is_visible="true"
     id="path-effect28273-4-2"
     effect="spiro" /><linearGradient
     id="linearGradient28853-5"><stop
       id="stop28855-3"
       offset="0"
       style="stop-color:#020204;stop-opacity:1" /><stop
       style="stop-color:#020204;stop-opacity:1"
       offset="0.73448181"
       id="stop28865-0" /><stop
       id="stop28857-9"
       offset="1"
       style="stop-color:#5c5c5c;stop-opacity:1;" /></linearGradient><inkscape:path-effect
     is_visible="true"
     id="path-effect28851-0"
     effect="spiro" /><inkscape:path-effect
     is_visible="true"
     id="path-effect28881-6"
     effect="spiro" /><linearGradient
     id="linearGradient28935-8"><stop
       id="stop28937-7"
       offset="0"
       style="stop-color:#949494;stop-opacity:0.39215687;" /><stop
       style="stop-color:#949494;stop-opacity:1;"
       offset="0.5"
       id="stop28943-3" /><stop
       id="stop28939-8"
       offset="1"
       style="stop-color:#949494;stop-opacity:0.39215687;" /></linearGradient><linearGradient
     id="linearGradient28976-3"><stop
       id="stop28978-7"
       offset="0"
       style="stop-color:#747474;stop-opacity:1" /><stop
       style="stop-color:#8c8c8c;stop-opacity:1;"
       offset="0.125"
       id="stop29259-5" /><stop
       style="stop-color:#a4a4a4;stop-opacity:1;"
       offset="0.25"
       id="stop29257-0" /><stop
       style="stop-color:#d4d4d4;stop-opacity:1"
       offset="0.5"
       id="stop28984-4" /><stop
       id="stop28986-0"
       offset="0.61919296"
       style="stop-color:#d4d4d4;stop-opacity:1" /><stop
       id="stop28980-2"
       offset="1"
       style="stop-color:#7c7c7c;stop-opacity:1" /></linearGradient><inkscape:path-effect
     is_visible="true"
     id="path-effect28974-8"
     effect="spiro" /><clipPath
     id="clipPath29028-5"
     clipPathUnits="userSpaceOnUse"><path
       sodipodi:nodetypes="aaaaaaaa"
       inkscape:connector-curvature="0"
       inkscape:original-d="m 85.75,122.36218 c -2.54738,2.12715 -5.20812,4.59907 -6.25,7.75 -1.30914,3.95917 -1.63336,8.91703 0.5,12.5 3.91901,6.58194 12.38353,13.85135 19.75,11.75 4.87452,-1.3905 6.10748,-8.51023 7,-13.5 0.59149,-3.30679 0.59578,-7.19325 -1.25,-10 -3.61233,-5.49303 -10.4265,-9.89357 -17,-10 -1.04403,-0.0169 -1.94852,0.83074 -2.75,1.5 z"
       id="path29030-7"
       d="m 85.75,122.36218 c -2.780425,1.91023 -5.110569,4.57487 -6.25,7.75 -1.436029,4.00163 -0.885838,8.48071 0.5,12.5 1.419488,4.11688 3.793788,8.04098 7.37932,10.51234 1.792766,1.23567 3.868091,2.08301 6.030402,2.33859 2.162311,0.25558 4.409274,-0.0949 6.340278,-1.10093 2.35312,-1.22596 4.14782,-3.37278 5.26217,-5.78076 1.11436,-2.40798 1.5888,-5.0701 1.73783,-7.71924 0.18989,-3.37546 -0.14047,-6.80646 -1.25,-10 -1.20527,-3.46909 -3.39005,-6.67055 -6.472754,-8.6666 -1.541351,-0.99803 -3.291947,-1.68356 -5.110883,-1.93515 -1.818936,-0.25158 -3.704766,-0.0633 -5.416363,0.60175 -0.975471,0.37901 -1.887438,0.9074 -2.75,1.5"
       style="fill:url(#radialGradient29032);fill-opacity:1;stroke:none" /></clipPath><linearGradient
     id="linearGradient29336-6"><stop
       id="stop29338-1"
       offset="0"
       style="stop-color:#646464;stop-opacity:0" /><stop
       style="stop-color:#646464;stop-opacity:0.5825243"
       offset="0.30628255"
       id="stop29344-7" /><stop
       id="stop29354-5"
       offset="0.47000006"
       style="stop-color:#646464;stop-opacity:1" /><stop
       style="stop-color:#646464;stop-opacity:0.25728154"
       offset="0.72834015"
       id="stop29356-3" /><stop
       id="stop29340-6"
       offset="1"
       style="stop-color:#646464;stop-opacity:0;" /></linearGradient><inkscape:path-effect
     is_visible="true"
     id="path-effect29455-3"
     effect="spiro" /><linearGradient
     id="linearGradient29477-3"><stop
       id="stop29479-5"
       offset="0"
       style="stop-color:#757574;stop-opacity:0" /><stop
       style="stop-color:#757574;stop-opacity:1;"
       offset="0.26291031"
       id="stop29487-5" /><stop
       style="stop-color:#757574;stop-opacity:1;"
       offset="0.5"
       id="stop29485-0" /><stop
       id="stop29481-3"
       offset="1"
       style="stop-color:#757574;stop-opacity:0" /></linearGradient><linearGradient
     id="linearGradient28469-0"><stop
       style="stop-color:#d2940a;stop-opacity:1"
       offset="0"
       id="stop28479-4" /><stop
       style="stop-color:#d89c08;stop-opacity:1"
       offset="0.75143719"
       id="stop28477-2" /><stop
       id="stop28485-7"
       offset="0.86579126"
       style="stop-color:#b67e07;stop-opacity:1;" /><stop
       id="stop28473-1"
       offset="1"
       style="stop-color:#946106;stop-opacity:1" /></linearGradient><inkscape:path-effect
     is_visible="true"
     id="path-effect28463-4"
     effect="spiro" /><inkscape:path-effect
     is_visible="true"
     id="path-effect28489-4"
     effect="spiro" /><inkscape:path-effect
     is_visible="true"
     id="path-effect28273-54-7"
     effect="spiro" /><linearGradient
     id="linearGradient28275-8"><stop
       id="stop28277-1"
       offset="0"
       style="stop-color:#ad780a;stop-opacity:1" /><stop
       style="stop-color:#d89e08;stop-opacity:1"
       offset="0.11972899"
       id="stop28291-9" /><stop
       style="stop-color:#edb80b;stop-opacity:1"
       offset="0.25514477"
       id="stop28289-6" /><stop
       style="stop-color:#ebc80d;stop-opacity:1"
       offset="0.39194193"
       id="stop28287-6" /><stop
       style="stop-color:#f5d838;stop-opacity:1"
       offset="0.52741116"
       id="stop28285-7" /><stop
       style="stop-color:#f6d811;stop-opacity:1"
       offset="0.76906693"
       id="stop28283-7" /><stop
       id="stop28279-5"
       offset="1"
       style="stop-color:#f5cd31;stop-opacity:1" /></linearGradient><inkscape:path-effect
     is_visible="true"
     id="path-effect28273-44"
     effect="spiro" /><inkscape:path-effect
     is_visible="true"
     id="path-effect28384-7"
     effect="spiro" /><linearGradient
     id="linearGradient29529-6"><stop
       id="stop29531-0"
       offset="0"
       style="stop-color:#3a2903;stop-opacity:1;" /><stop
       style="stop-color:#735208;stop-opacity:1"
       offset="0.55472803"
       id="stop29539-7" /><stop
       id="stop29533-8"
       offset="1"
       style="stop-color:#ac8c04;stop-opacity:1" /></linearGradient><inkscape:path-effect
     is_visible="true"
     id="path-effect29553-7"
     effect="spiro" /><clipPath
     id="clipPath29644-8"
     clipPathUnits="userSpaceOnUse"><path
       sodipodi:nodetypes="zzzzzzz"
       inkscape:connector-curvature="0"
       inkscape:original-d="m 54.232441,122.36218 c -3.79199,4.78949 -8.5176,11.69104 -8.19273,17.25 0.32487,5.55896 3.86025,13.93486 8.37542,16 4.51517,2.06514 5.75436,0.0125 8.32902,-2.5 2.57466,-2.51247 3.85871,-7.34762 4.00585,-12.25 0.14713,-4.90238 -3.03534,-11.91949 -5.43855,-15.25 -2.40321,-3.33051 -3.28702,-8.03949 -7.07901,-3.25 z"
       id="path29646-8"
       d="m 54.232441,122.36218 c -1.780966,0.097 -3.484616,0.91899 -4.787851,2.1367 -1.303235,1.21771 -2.221372,2.81176 -2.786181,4.50357 -1.129618,3.38363 -0.875481,7.05177 -0.618698,10.60973 0.23251,3.22162 0.470404,6.50533 1.676785,9.50158 0.60319,1.49813 1.450247,2.91021 2.580338,4.06395 1.130092,1.15374 2.551736,2.04189 4.118297,2.43447 1.468838,0.36809 3.038161,0.29183 4.482784,-0.16209 1.444623,-0.45391 2.763917,-1.27887 3.846236,-2.33791 1.57904,-1.54507 2.643262,-3.5662 3.253449,-5.68947 0.610186,-2.12328 0.784157,-4.35155 0.752401,-6.56053 -0.03974,-2.76435 -0.400909,-5.53851 -1.265755,-8.16439 -0.864846,-2.62588 -2.245742,-5.10327 -4.172795,-7.08561 -0.933308,-0.96009 -1.997766,-1.80513 -3.198586,-2.39747 -1.200819,-0.59233 -2.54344,-0.92535 -3.880424,-0.85253"
       style="fill:url(#radialGradient29648);fill-opacity:1;stroke:none" /></clipPath><inkscape:path-effect
     is_visible="true"
     id="path-effect29707-7-6"
     effect="spiro" /><clipPath
     clipPathUnits="userSpaceOnUse"
     id="clipPath14656-7"><path
       sodipodi:nodetypes="aaaaassssaaaaaa"
       inkscape:connector-curvature="0"
       d="m 304.84727,225.44951 c 6.01627,4.92338 9.77707,12.317 10.94319,20.00305 1.8254,12.03148 -2.34636,24.07488 -6.44591,35.53273 -0.81749,2.28481 -1.63978,4.59033 -1.96473,6.99513 -0.32495,2.4048 -0.11897,4.94825 1.02948,7.08594 1.30279,2.42497 3.73227,4.12469 6.36677,4.92292 2.58877,0.78438 5.39365,0.76103 8.01466,0.0922 2.62101,-0.66882 5.06097,-1.96774 7.18716,-3.63996 5.48002,-4.30997 8.75799,-10.98552 10.01043,-17.84394 1.25243,-6.85841 0.63908,-13.92879 -0.551,-20.7983 -1.62313,-9.36916 -4.30898,-18.53961 -7.74003,-27.40773 -2.51766,-6.50732 -5.46794,-12.91081 -9.61753,-18.52016 -4.04611,-5.46946 -9.16208,-10.08954 -13.10336,-15.63502 -2.73209,-3.84412 -4.89983,-8.13097 -8.1917,-11.50812 -1.64594,-1.68858 -3.57654,-3.13527 -5.76975,-4.00143 -2.19321,-0.86616 -4.66356,-1.12446 -6.93254,-0.48249 -1.50468,0.42573 -2.89193,1.23739 -4.03791,2.30136 -1.14598,1.06397 -2.05268,2.37637 -2.69275,3.80312 -1.28015,2.85349 -1.47719,6.11241 -0.96512,9.1977 0.66114,3.98343 2.44407,7.69333 4.46569,11.18873 2.27396,3.93169 4.918,7.71926 8.38442,10.65407 3.5985,3.04664 7.96161,5.07413 11.61053,8.0602"
       id="path14658-9"
       inkscape:original-d="m 304.84727,225.44951 c 5.05628,5.63479 9.72833,12.47181 10.94319,20.00305 1.91724,11.88535 -4.97006,23.58228 -6.44591,35.53273 -0.57645,4.66766 -2.84839,9.7988 -0.93525,14.08107 1.10334,2.46967 3.76154,4.35176 6.36677,4.92292 5.08221,1.1142 11.95719,2.41291 15.20182,-3.54776 6.07775,-11.16533 10.5961,-26.78641 9.45943,-38.64224 -0.906,-9.44981 -3.86858,-18.61978 -7.74003,-27.40773 -2.817,-6.39442 -6.14704,-12.5833 -9.61753,-18.52016 -3.44146,-5.88721 -8.20051,-10.94245 -13.10336,-15.63502 -6.34842,-6.07614 -12.40311,-17.98386 -20.89399,-15.99204 -5.48499,1.28669 -7.45029,9.57719 -7.69578,15.30218 -0.17245,4.02188 2.46425,7.71677 4.46569,11.18873 2.26238,3.92465 5.10447,7.56255 8.38442,10.65407 3.43735,3.23988 8.4511,4.53927 11.61053,8.0602 z"
       style="fill:none;stroke:#c17d11;stroke-width:1px;stroke-linecap:butt;stroke-linejoin:miter;stroke-opacity:1" /></clipPath><inkscape:path-effect
     is_visible="true"
     id="path-effect4500-7"
     effect="spiro" /><inkscape:path-effect
     is_visible="true"
     id="path-effect4582-3"
     effect="spiro" /><inkscape:path-effect
     effect="spiro"
     id="path-effect14300-7"
     is_visible="true" /><clipPath
     clipPathUnits="userSpaceOnUse"
     id="clipPath14489-3"><path
       style="fill:url(#linearGradient14493);fill-opacity:1;stroke:none"
       d="m 516.00562,331.8756 c -0.6714,1.71905 -1.62682,3.32679 -2.81579,4.73826 -2.6238,3.11482 -6.268,5.17039 -9.89648,7.01985 -6.1886,3.15437 -12.60169,5.92177 -18.41964,9.71654 -3.89802,2.54249 -7.4959,5.52671 -10.86016,8.74238 -2.87719,2.75012 -5.60582,5.68745 -8.83247,8.01771 -3.25567,2.35122 -7.01915,4.05426 -10.99061,4.6502 -4.83026,0.72481 -9.82134,-0.21289 -14.29898,-2.16416 -3.13754,-1.36728 -6.15569,-3.3229 -7.96301,-6.22931 -1.81425,-2.91754 -2.22807,-6.48813 -2.23266,-9.92375 -0.008,-6.07666 1.11824,-12.09004 2.17848,-18.07349 0.88097,-4.97177 1.71949,-9.95483 2.26013,-14.97502 0.98337,-9.13118 0.9763,-18.35278 0.3199,-27.51327 -0.10993,-1.53416 -0.23754,-3.0832 -0.008,-4.60412 0.22922,-1.52092 0.85475,-3.0367 2.02069,-4.03986 1.07696,-0.9266 2.52093,-1.33598 3.93947,-1.4145 1.41854,-0.0785 2.83404,0.14655 4.23982,0.35197 3.31254,0.48405 6.65159,0.8649 9.88917,1.71656 2.04284,0.53738 4.03315,1.25925 6.0722,1.81081 3.40258,0.92039 6.96639,1.36144 10.46739,0.95192 3.76917,-0.44089 7.42987,-1.85678 11.22363,-1.76474 1.55658,0.0378 3.1015,0.33171 4.58649,0.79985 1.51539,0.47772 3.00914,1.16182 4.12281,2.29512 0.84639,0.8613 1.43579,1.94539 1.87872,3.06879 0.65982,1.67352 1.01492,3.457 1.16703,5.24945 0.13475,1.58788 0.11343,3.19441 0.41433,4.75933 0.49503,2.57458 1.84746,4.92305 3.52848,6.93494 1.68102,2.01189 3.68982,3.72048 5.69641,5.40783 1.99908,1.68103 4.0106,3.35469 6.16708,4.82839 1.0121,0.69165 2.05642,1.33949 3.01736,2.10062 0.96094,0.76113 1.84466,1.6468 2.44543,2.71535 0.81492,1.44944 1.06377,3.2077 0.68307,4.82635 l 2e-5,0"
       id="path14491-6"
       inkscape:connector-curvature="0"
       sodipodi:nodetypes="aaaaaaaaaaaaaaaaaaaaaaaacscaa"
       inkscape:original-d="m 516.00562,331.8756 c 0.90859,1.59687 -1.57016,3.38773 -2.81579,4.73826 -2.74207,2.97299 -6.45099,4.90178 -9.89648,7.01985 -5.91373,3.63539 -12.61918,5.90302 -18.41964,9.71654 -3.88318,2.553 -7.32809,5.72221 -10.86016,8.74238 -3.0221,2.58411 -5.48201,5.87643 -8.83247,8.01771 -3.3519,2.1422 -7.0437,4.15414 -10.99061,4.6502 -4.78298,0.60114 -9.87221,-0.25577 -14.29898,-2.16416 -3.0947,-1.33413 -6.16113,-3.38144 -7.96301,-6.22931 -1.81288,-2.86525 -2.06093,-6.5375 -2.23266,-9.92375 -0.30734,-6.06031 1.36252,-12.0605 2.17848,-18.07349 0.67882,-5.00236 1.85312,-9.94325 2.26013,-14.97502 0.73946,-9.14185 -0.7797,-18.40771 0.3199,-27.51327 0.35468,-2.93704 -0.181,-6.65876 2.01238,-8.64398 2.0384,-1.84494 5.43058,-1.1212 8.17929,-1.06253 3.34492,0.0714 6.63224,0.95108 9.88917,1.71656 2.05612,0.48325 3.99816,1.41138 6.0722,1.81081 3.44031,0.66255 6.96573,1.06623 10.46739,0.95192 3.78516,-0.12356 7.43659,-1.79636 11.22363,-1.76474 1.55185,0.013 3.12359,0.28186 4.58649,0.79985 1.48266,0.52499 2.98786,1.20618 4.12281,2.29512 0.86547,0.83038 1.42933,1.95676 1.87872,3.06879 0.67163,1.66196 0.8942,3.4778 1.16703,5.24945 0.24238,1.57389 -0.1531,3.27141 0.41433,4.75933 1.83023,4.79924 5.57666,8.72712 9.22489,12.34277 1.74278,1.93455 4.03041,3.53404 6.16708,4.82839 2.26886,1.37444 4.3675,2.44991 5.46279,4.81597 0.65901,1.48517 -0.54371,3.76097 0.68307,4.82635 z" /></clipPath><inkscape:path-effect
     effect="spiro"
     id="path-effect14300-2-7"
     is_visible="true" /><clipPath
     clipPathUnits="userSpaceOnUse"
     id="clipPath14481-1"><path
       style="fill:url(#linearGradient14485);fill-opacity:1;stroke:none"
       d="m 516.00562,331.8756 c -0.6714,1.71905 -1.62682,3.32679 -2.81579,4.73826 -2.6238,3.11482 -6.268,5.17039 -9.89648,7.01985 -6.1886,3.15437 -12.60169,5.92177 -18.41964,9.71654 -3.89802,2.54249 -7.4959,5.52671 -10.86016,8.74238 -2.87719,2.75012 -5.60582,5.68745 -8.83247,8.01771 -3.25567,2.35122 -7.01915,4.05426 -10.99061,4.6502 -4.83026,0.72481 -9.82134,-0.21289 -14.29898,-2.16416 -3.13754,-1.36728 -6.15569,-3.3229 -7.96301,-6.22931 -1.81425,-2.91754 -2.22807,-6.48813 -2.23266,-9.92375 -0.008,-6.07666 1.11824,-12.09004 2.17848,-18.07349 0.88097,-4.97177 1.71949,-9.95483 2.26013,-14.97502 0.98337,-9.13118 0.9763,-18.35278 0.3199,-27.51327 -0.10993,-1.53416 -0.23754,-3.0832 -0.008,-4.60412 0.22922,-1.52092 0.85475,-3.0367 2.02069,-4.03986 1.07696,-0.9266 2.52093,-1.33598 3.93947,-1.4145 1.41854,-0.0785 2.83404,0.14655 4.23982,0.35197 3.31254,0.48405 6.65159,0.8649 9.88917,1.71656 2.04284,0.53738 4.03315,1.25925 6.0722,1.81081 3.40258,0.92039 6.96639,1.36144 10.46739,0.95192 3.76917,-0.44089 7.42987,-1.85678 11.22363,-1.76474 1.55658,0.0378 3.1015,0.33171 4.58649,0.79985 1.51539,0.47772 3.00914,1.16182 4.12281,2.29512 0.84639,0.8613 1.43579,1.94539 1.87872,3.06879 0.65982,1.67352 1.01492,3.457 1.16703,5.24945 0.13475,1.58788 0.11343,3.19441 0.41433,4.75933 0.49503,2.57458 1.84746,4.92305 3.52848,6.93494 1.68102,2.01189 3.68982,3.72048 5.69641,5.40783 1.99908,1.68103 4.0106,3.35469 6.16708,4.82839 1.0121,0.69165 2.05642,1.33949 3.01736,2.10062 0.96094,0.76113 1.84466,1.6468 2.44543,2.71535 0.81492,1.44944 1.06377,3.2077 0.68307,4.82635 l 2e-5,0"
       id="path14483-3"
       inkscape:connector-curvature="0"
       sodipodi:nodetypes="aaaaaaaaaaaaaaaaaaaaaaaacscaa"
       inkscape:original-d="m 516.00562,331.8756 c 0.90859,1.59687 -1.57016,3.38773 -2.81579,4.73826 -2.74207,2.97299 -6.45099,4.90178 -9.89648,7.01985 -5.91373,3.63539 -12.61918,5.90302 -18.41964,9.71654 -3.88318,2.553 -7.32809,5.72221 -10.86016,8.74238 -3.0221,2.58411 -5.48201,5.87643 -8.83247,8.01771 -3.3519,2.1422 -7.0437,4.15414 -10.99061,4.6502 -4.78298,0.60114 -9.87221,-0.25577 -14.29898,-2.16416 -3.0947,-1.33413 -6.16113,-3.38144 -7.96301,-6.22931 -1.81288,-2.86525 -2.06093,-6.5375 -2.23266,-9.92375 -0.30734,-6.06031 1.36252,-12.0605 2.17848,-18.07349 0.67882,-5.00236 1.85312,-9.94325 2.26013,-14.97502 0.73946,-9.14185 -0.7797,-18.40771 0.3199,-27.51327 0.35468,-2.93704 -0.181,-6.65876 2.01238,-8.64398 2.0384,-1.84494 5.43058,-1.1212 8.17929,-1.06253 3.34492,0.0714 6.63224,0.95108 9.88917,1.71656 2.05612,0.48325 3.99816,1.41138 6.0722,1.81081 3.44031,0.66255 6.96573,1.06623 10.46739,0.95192 3.78516,-0.12356 7.43659,-1.79636 11.22363,-1.76474 1.55185,0.013 3.12359,0.28186 4.58649,0.79985 1.48266,0.52499 2.98786,1.20618 4.12281,2.29512 0.86547,0.83038 1.42933,1.95676 1.87872,3.06879 0.67163,1.66196 0.8942,3.4778 1.16703,5.24945 0.24238,1.57389 -0.1531,3.27141 0.41433,4.75933 1.83023,4.79924 5.57666,8.72712 9.22489,12.34277 1.74278,1.93455 4.03041,3.53404 6.16708,4.82839 2.26886,1.37444 4.3675,2.44991 5.46279,4.81597 0.65901,1.48517 -0.54371,3.76097 0.68307,4.82635 z" /></clipPath><inkscape:path-effect
     effect="spiro"
     id="path-effect14300-2-2-0"
     is_visible="true" /><clipPath
     clipPathUnits="userSpaceOnUse"
     id="clipPath14473-5"><path
       style="fill:url(#linearGradient14477);fill-opacity:1;stroke:none"
       d="m 511.82669,331.89986 c -0.60617,1.40358 -1.44178,2.70776 -2.46357,3.84504 -2.32524,2.58805 -5.50706,4.22246 -8.65855,5.69652 -5.42045,2.53534 -11.00071,4.7788 -16.11556,7.88485 -3.38301,2.05437 -6.53696,4.47221 -9.50169,7.09434 -2.52461,2.23286 -4.92977,4.6271 -7.72763,6.50627 -2.88313,1.93644 -6.17534,3.29888 -9.61582,3.77358 -4.21817,0.58201 -8.55335,-0.18335 -12.51035,-1.75619 -2.7091,-1.07682 -5.36625,-2.6185 -6.96693,-5.05501 -1.53813,-2.3413 -1.9333,-5.25173 -1.95338,-8.053 -0.0354,-4.93859 0.96501,-9.81816 1.90598,-14.66641 0.78215,-4.02995 1.52682,-8.0717 1.97741,-12.15204 0.81784,-7.40607 0.66114,-14.88536 0.27989,-22.32668 -0.064,-1.24906 -0.13361,-2.5105 0.0789,-3.74301 0.21256,-1.23251 0.73646,-2.45247 1.68171,-3.27147 0.93914,-0.8137 2.20952,-1.15942 3.45104,-1.2115 1.24152,-0.0521 2.47642,0.16381 3.70512,0.34927 2.88969,0.43617 5.81087,0.7091 8.65215,1.39297 1.78651,0.43 3.53091,1.02011 5.31265,1.46945 2.98632,0.75312 6.09645,1.10709 9.15804,0.77247 3.2941,-0.36004 6.50688,-1.50957 9.81969,-1.43207 1.35838,0.0318 2.70755,0.27142 4.01277,0.64907 1.31265,0.3798 2.61744,0.9202 3.6071,1.86246 0.72535,0.69061 1.25006,1.56936 1.64371,2.49029 0.57625,1.34814 0.88626,2.79994 1.02105,4.25986 0.11897,1.28855 0.10468,2.59405 0.36251,3.86214 0.4369,2.14878 1.63966,4.08139 3.11506,5.70353 1.4754,1.62214 3.22406,2.96752 4.9559,4.31247 1.75634,1.36398 3.50975,2.7398 5.39565,3.91818 0.88228,0.55128 1.79349,1.05932 2.63473,1.67142 0.84123,0.61209 1.61878,1.33907 2.14473,2.23668 0.68386,1.16711 0.90229,2.59857 0.59763,3.91652 l 2e-5,0"
       id="path14475-9"
       inkscape:connector-curvature="0"
       sodipodi:nodetypes="aaaaaaaaaaaaaaaaaaaaaaaacscaa"
       inkscape:original-d="m 511.82669,331.89986 c 0.79493,1.29584 -1.37375,2.7491 -2.46357,3.84504 -2.39907,2.41255 -5.64405,3.97773 -8.65855,5.69652 -5.17399,2.95008 -11.04067,4.79023 -16.11556,7.88485 -3.39744,2.07173 -6.41144,4.64351 -9.50169,7.09434 -2.64407,2.09697 -4.79627,4.76865 -7.72763,6.50627 -2.93262,1.73837 -6.16262,3.37103 -9.61582,3.77358 -4.18468,0.48781 -8.63731,-0.20756 -12.51035,-1.75619 -2.70759,-1.08263 -5.39044,-2.744 -6.96693,-5.05501 -1.58611,-2.32511 -1.80313,-5.3051 -1.95338,-8.053 -0.2689,-4.91787 1.19208,-9.78694 1.90598,-14.66641 0.59391,-4.05935 1.62131,-8.06882 1.97741,-12.15204 0.64696,-7.4185 -0.68217,-14.93763 0.27989,-22.32668 0.31031,-2.38337 -0.15836,-5.4035 1.76065,-7.01448 1.78342,-1.49715 4.75128,-0.90984 7.15616,-0.86223 2.92651,0.0579 5.80263,0.77179 8.65215,1.39297 1.79893,0.39215 3.49804,1.14531 5.31265,1.46945 3.00996,0.53765 6.0944,0.86523 9.15804,0.77247 3.31168,-0.10027 6.50636,-1.45773 9.81969,-1.43207 1.35773,0.0105 2.73287,0.22873 4.01277,0.64907 1.2972,0.42602 2.61412,0.9788 3.6071,1.86246 0.75721,0.67384 1.25054,1.58789 1.64371,2.49029 0.58762,1.34866 0.78235,2.82219 1.02105,4.25986 0.21206,1.27719 -0.13395,2.65471 0.36251,3.86214 1.60129,3.89452 4.87908,7.08195 8.07096,10.016 1.52478,1.56986 3.52626,2.86783 5.39565,3.91818 1.98506,1.11534 3.82118,1.98807 4.77946,3.9081 0.57658,1.2052 -0.47569,3.05198 0.59763,3.91652 z" /></clipPath><linearGradient
     id="linearGradient14518-6"><stop
       id="stop14540-0"
       offset="0"
       style="stop-color:#110800;stop-opacity:1;" /><stop
       style="stop-color:#a65a00;stop-opacity:0.80000001;"
       offset="0.59066743"
       id="stop14542-5" /><stop
       style="stop-color:#ff921e;stop-opacity:0;"
       offset="1"
       id="stop14522-4" /></linearGradient><inkscape:path-effect
     is_visible="true"
     id="path-effect29716-0-0"
     effect="spiro" /><inkscape:path-effect
     is_visible="true"
     id="path-effect29716-0-8-3"
     effect="spiro" /><inkscape:path-effect
     is_visible="true"
     id="path-effect29716-6-1"
     effect="spiro" /><clipPath
     clipPathUnits="userSpaceOnUse"
     id="clipPath14822-9"><path
       sodipodi:nodetypes="aaaasssaccaa"
       inkscape:connector-curvature="0"
       d="m 386.1875,285.32775 c -0.40516,-1.10369 -1.11845,-2.08156 -1.9907,-2.86987 -0.87226,-0.78832 -1.90049,-1.39229 -2.98278,-1.85155 -2.16459,-0.91852 -4.52053,-1.26149 -6.83152,-1.69556 -2.17919,-0.40931 -4.34179,-0.90631 -6.52782,-1.27734 -2.27136,-0.38551 -4.6179,-0.63213 -6.8653,-0.1253 -1.96583,0.44333 -3.7845,1.45879 -5.27172,2.81864 -1.48723,1.35984 -2.64911,3.0564 -3.48499,4.89007 -1.47218,3.22952 -1.93451,6.86503 -1.65394,10.40316 0.20882,2.63325 0.87532,5.34594 2.60877,7.33912 1.40065,1.61052 3.38733,2.61526 5.43398,3.22092 3.52502,1.04316 7.36663,0.98822 10.86038,-0.1553 5.76689,-1.93113 10.87568,-5.77387 14.33034,-10.77903 1.13861,-1.64963 2.11217,-3.44809 2.5532,-5.4034 0.33597,-1.48955 0.34831,-3.08112 -0.1779,-4.51456"
       id="path14824-1"
       inkscape:original-d="m 386.1875,285.32775 c -2.36571,-3.81321 -7.59294,-4.9003 -11.805,-6.41698 -2.08672,-0.75138 -4.32322,-1.04333 -6.52782,-1.27734 -2.27612,-0.2416 -4.71593,-0.91505 -6.8653,-0.1253 -3.64566,1.33955 -7.24986,3.80684 -8.75671,7.70871 -1.13743,2.94527 -1.80122,7.05909 -1.65394,10.40316 0.13075,2.96891 0.9633,5.07273 2.60877,7.33912 1.08803,1.49859 3.40096,2.67896 5.43398,3.22092 3.49923,0.93284 7.37483,0.82779 10.86038,-0.1553 5.98587,-2.2615 11.09272,-5.76885 14.33034,-10.77903 1.07459,-1.67639 2.15539,-3.45031 2.5532,-5.4034 0.30053,-1.4755 0.61519,-3.23621 -0.1779,-4.51456 z"
       style="fill:none;stroke:#ce5c00;stroke-width:1px;stroke-linecap:butt;stroke-linejoin:miter;stroke-opacity:1" /></clipPath><clipPath
     clipPathUnits="userSpaceOnUse"
     id="clipPath14822-2-4"><path
       sodipodi:nodetypes="aaaasssaccaa"
       inkscape:connector-curvature="0"
       d="m 386.1875,285.32775 c -0.40516,-1.10369 -1.11845,-2.08156 -1.9907,-2.86987 -0.87226,-0.78832 -1.90049,-1.39229 -2.98278,-1.85155 -2.16459,-0.91852 -4.52053,-1.26149 -6.83152,-1.69556 -2.17919,-0.40931 -4.34179,-0.90631 -6.52782,-1.27734 -2.27136,-0.38551 -4.6179,-0.63213 -6.8653,-0.1253 -1.96583,0.44333 -3.7845,1.45879 -5.27172,2.81864 -1.48723,1.35984 -2.64911,3.0564 -3.48499,4.89007 -1.47218,3.22952 -1.93451,6.86503 -1.65394,10.40316 0.20882,2.63325 0.87532,5.34594 2.60877,7.33912 1.40065,1.61052 3.38733,2.61526 5.43398,3.22092 3.52502,1.04316 7.36663,0.98822 10.86038,-0.1553 5.76689,-1.93113 10.87568,-5.77387 14.33034,-10.77903 1.13861,-1.64963 2.11217,-3.44809 2.5532,-5.4034 0.33597,-1.48955 0.34831,-3.08112 -0.1779,-4.51456"
       id="path14824-6-5"
       inkscape:original-d="m 386.1875,285.32775 c -2.36571,-3.81321 -7.59294,-4.9003 -11.805,-6.41698 -2.08672,-0.75138 -4.32322,-1.04333 -6.52782,-1.27734 -2.27612,-0.2416 -4.71593,-0.91505 -6.8653,-0.1253 -3.64566,1.33955 -7.24986,3.80684 -8.75671,7.70871 -1.13743,2.94527 -1.80122,7.05909 -1.65394,10.40316 0.13075,2.96891 0.9633,5.07273 2.60877,7.33912 1.08803,1.49859 3.40096,2.67896 5.43398,3.22092 3.49923,0.93284 7.37483,0.82779 10.86038,-0.1553 5.98587,-2.2615 11.09272,-5.76885 14.33034,-10.77903 1.07459,-1.67639 2.15539,-3.45031 2.5532,-5.4034 0.30053,-1.4755 0.61519,-3.23621 -0.1779,-4.51456 z"
       style="fill:none;stroke:#ce5c00;stroke-width:1px;stroke-linecap:butt;stroke-linejoin:miter;stroke-opacity:1" /></clipPath><inkscape:path-effect
     effect="spiro"
     id="path-effect14972-2-2"
     is_visible="true" /><inkscape:path-effect
     effect="spiro"
     id="path-effect15017-9"
     is_visible="true" /><clipPath
     clipPathUnits="userSpaceOnUse"
     id="clipPath15031-3"><path
       style="fill:none;stroke:#729fcf;stroke-width:0.125;stroke-linecap:butt;stroke-linejoin:miter;stroke-miterlimit:4;stroke-dasharray:none;stroke-opacity:1"
       d="m 248.06066,184.61218 c -2.60091,3.4397 -5.23338,6.85555 -7.89695,10.24696 -2.83301,3.60715 -5.70116,7.1866 -8.58729,10.75139 -3.54135,4.37407 -7.15155,8.79286 -9.44912,13.93045 -1.97407,4.41422 -2.91014,9.20748 -4.26498,13.84932 -1.53862,5.27153 -3.62627,10.37023 -5.97071,15.33612 -2.1648,4.58539 -4.54978,9.06293 -6.93891,13.53553 -1.73823,3.25407 -3.50515,6.58104 -4.10782,10.22071 -0.47627,2.87632 -0.19849,5.84423 0.53376,8.66626 0.73224,2.82202 1.90964,5.5106 3.23775,8.10601 5.66724,11.07504 14.17003,20.62168 24.24176,27.92472 4.57063,3.31418 9.46669,6.18109 14.60245,8.52595 2.78247,1.27041 5.71355,2.40436 8.77186,2.45744 1.52915,0.0265 3.0741,-0.22544 4.47434,-0.84055 1.40024,-0.6151 2.65068,-1.60373 3.48254,-2.88709 1.02278,-1.5779 1.36992,-3.53829 1.16461,-5.40743 -0.2053,-1.86914 -0.93484,-3.65294 -1.91324,-5.25873 -2.38997,-3.92251 -6.1652,-6.76055 -9.79642,-9.57343 -7.84055,-6.07358 -15.42466,-12.48038 -22.68212,-19.23996 -2.04911,-1.90854 -4.0984,-3.87759 -5.53019,-6.28412 -1.3943,-2.34352 -2.14763,-5.01375 -2.65783,-7.69253 -1.39963,-7.34872 -1.0404,-15.0827 1.45958,-22.13343 0.97802,-2.75834 2.27066,-5.39225 3.51815,-8.03965 2.1622,-4.58855 4.21133,-9.26299 7.04933,-13.46723 3.53268,-5.23334 8.24484,-9.67275 11.15147,-15.27803 2.45457,-4.7335 3.49353,-10.05742 4.36185,-15.31831 0.66531,-4.03089 1.24751,-8.07549 1.74613,-12.13037"
       id="path15033-2"
       inkscape:connector-curvature="0"
       inkscape:original-d="m 248.06066,184.61218 c 0,0 -5.10626,6.34527 -7.89695,10.24696 -2.7907,3.9017 -5.73652,6.64881 -8.58729,10.75139 -2.85076,4.10259 -7.36482,9.43164 -9.44912,13.93045 -2.08429,4.49881 -2.32047,9.0356 -4.26498,13.84932 -1.94451,4.81371 -3.70129,10.64183 -5.97071,15.33612 -2.26943,4.69429 -5.37093,9.68473 -6.93891,13.53553 -1.56799,3.8508 -3.81119,5.72384 -4.10782,10.22071 -0.29663,4.49686 -0.57747,8.31749 3.77151,16.77227 4.34898,8.45478 17.23626,22.00721 24.24176,27.92472 7.00549,5.9175 9.39133,7.22492 14.60245,8.52595 5.21112,1.30104 13.85627,2.9981 16.72874,-1.2702 2.87246,-4.26829 2.27191,-5.96483 -0.74863,-10.66616 -3.02055,-4.70132 -4.82469,-5.30209 -9.79642,-9.57343 -4.97172,-4.27133 -18.63696,-14.87266 -22.68212,-19.23996 -4.04516,-4.36729 -7.10731,-3.41164 -5.53019,-6.28412 1.57712,-2.87249 -2.20738,-4.00856 -2.65783,-7.69253 -0.76361,-6.24511 0.9436,-18.71046 1.45958,-22.13343 0.51598,-3.42296 1.22371,-2.92446 3.51815,-8.03965 2.29444,-5.11519 4.12424,-8.62435 7.04933,-13.46723 2.92509,-4.84289 8.62493,-10.12787 11.15147,-15.27803 2.52654,-5.15017 3.50393,-10.72068 4.36185,-15.31831 0.85792,-4.59763 1.74613,-12.13037 1.74613,-12.13037 z"
       sodipodi:nodetypes="czzzzzzzzzzzzzzzszzzzzc" /></clipPath><clipPath
     clipPathUnits="userSpaceOnUse"
     id="clipPath14186-9"><path
       inkscape:original-d="m 137.57703,281.0191 c 6.32494,-1.3585 11.99755,4.87308 16.86679,9.13228 6.42572,5.62067 -8.54781,26.01622 13.24488,19.8293 5.86081,-1.66388 6.89528,11.31183 10.16415,16.45304 4.09971,6.44793 11.58575,13.6827 13.65231,21.03883 1.58383,5.63779 1.34339,10.90606 -1.62666,15.95302 -3.57124,6.06857 -11.7907,10.42929 -18.78877,11.20919 -5.73056,0.63864 -11.87822,-3.8351 -17.38362,-5.54906 -12.31617,-3.83432 -23.77946,-5.82074 -36.09666,-9.65174 -2.50091,-0.77785 -8.28361,-2.638 -10.96988,-3.42629 -4.51043,-1.3236 -6.46556,-0.99271 -8.72046,-4.76819 -2.68251,-4.49147 0.68051,-9.72669 3.16379,-14.79408 4.06995,-8.30524 1.91195,-17.82603 0.46203,-25.51057 -0.92235,-4.8884 -0.66071,-7.92707 2.7425,-10.79139 4.99476,-4.20385 14.53027,-1.53186 20.35272,-4.08305 5.82246,-2.55119 6.66365,-13.6939 12.93688,-15.04129 z"
       sodipodi:nodetypes="ssssssssssssssss"
       inkscape:connector-curvature="0"
       id="path14188-1"
       d="m 137.57703,281.0191 c 1.59929,-0.66295 3.3982,-0.78361 5.10074,-0.46963 1.70253,0.31398 3.31141,1.04948 4.74342,2.02239 2.86402,1.94583 4.98821,4.77774 7.02263,7.57952 4.67189,6.43406 9.16868,13.00227 13.24488,19.8293 3.30635,5.53766 6.34352,11.25685 10.16415,16.45304 2.49398,3.3919 5.3066,6.53947 7.813,9.92221 2.50639,3.38273 4.72794,7.05586 5.83931,11.11662 1.44411,5.27653 0.88463,11.09291 -1.62666,15.95302 -1.76663,3.41896 -4.47646,6.35228 -7.77242,8.33898 -3.29595,1.9867 -7.17064,3.01444 -11.01635,2.87021 -6.11413,-0.2293 -11.69944,-3.28515 -17.38362,-5.54906 -11.58097,-4.6125 -24.15978,-6.0594 -36.09666,-9.65174 -3.66859,-1.10404 -7.27582,-2.4107 -10.96988,-3.42629 -1.64125,-0.45122 -3.30866,-0.8482 -4.85875,-1.55144 -1.55008,-0.70325 -2.999548,-1.7491 -3.86171,-3.21675 -0.666391,-1.13439 -0.948386,-2.47002 -0.930187,-3.78554 0.0182,-1.31552 0.325889,-2.61453 0.773815,-3.85158 0.895851,-2.47409 2.343262,-4.71374 3.320162,-7.15696 1.59511,-3.98935 1.88169,-8.38839 1.66657,-12.67942 -0.21511,-4.29103 -0.91078,-8.54478 -1.20454,-12.83115 -0.13118,-1.91406 -0.18066,-3.85256 0.18479,-5.73598 0.36545,-1.88343 1.17577,-3.72459 2.55771,-5.05541 1.27406,-1.22693 2.96492,-1.95531 4.69643,-2.31651 1.73151,-0.3612 3.51533,-0.37747 5.28367,-0.33762 1.76833,0.0399 3.54067,0.13425 5.30351,-0.0106 1.76284,-0.14488 3.53347,-0.54055 5.06911,-1.41828 1.45996,-0.83447 2.65433,-2.0745 3.64374,-3.43424 0.9894,-1.35974 1.78909,-2.84573 2.60891,-4.31396 0.81983,-1.46823 1.66834,-2.93151 2.74157,-4.22611 1.07324,-1.2946 2.38923,-2.42304 3.94266,-3.06698"
       style="fill:#402c07;fill-opacity:1;stroke:none" /></clipPath><inkscape:path-effect
     is_visible="true"
     id="path-effect4669-1"
     effect="spiro" /><inkscape:path-effect
     is_visible="true"
     id="path-effect4669-4-3"
     effect="spiro" /><clipPath
     clipPathUnits="userSpaceOnUse"
     id="clipPath847"><circle
       style="display:inline;fill:#393a59;stroke-width:1.32825"
       cx="370.79327"
       cy="213.23535"
       r="340.03104"
       id="circle849" /></clipPath><clipPath
     clipPathUnits="userSpaceOnUse"
     id="clipPath2419"><path
       id="path2421"
       style="display:inline;fill:#d863bb;stroke-width:1.32825"
       d="M 361.45665,-44.138293 A 221.17346,210.51681 0 0 0 140.28291,166.37836 221.17346,210.51681 0 0 0 171.20873,272.89488 c -2.84043,13.61331 -0.11675,27.96184 13.34213,41.41429 4.52401,4.52401 9.50292,7.58903 14.80528,9.43263 18.51435,6.43797 35.73892,16.10593 49.93115,29.62611 L 370.78031,469.10434 492.27333,353.36791 c 14.19228,-13.52019 31.41679,-23.18812 49.93117,-29.62611 5.30235,-1.8436 10.27869,-4.90862 14.80267,-9.43263 20.05902,-20.04949 16.3721,-42.08835 5.72289,-60.69981 A 221.17346,210.51681 0 0 0 582.6304,166.37836 221.17346,210.51681 0 0 0 361.45665,-44.138293 Z M 579.99726,305.67298 c -4.13523,3.89039 -8.87275,8.14843 -14.09446,12.69616 5.22171,-4.54773 9.95923,-8.80577 14.09446,-12.69616 z m -92.53104,76.02912 c -14.45348,11.16561 -28.9739,22.21312 -42.62321,32.50052 13.64931,-10.2874 28.16973,-21.33491 42.62321,-32.50052 z" /></clipPath><clipPath
     clipPathUnits="userSpaceOnUse"
     id="clipPath2571"><ellipse
       style="display:inline;fill:#0000ff;fill-opacity:1;stroke-width:1.538"
       id="ellipse2573"
       cx="372.30878"
       cy="197.70192"
       rx="143.39502"
       ry="216.14429" /></clipPath></defs><sodipodi:namedview
   id="namedview127"
   pagecolor="#ffffff"
   bordercolor="#000000"
   borderopacity="0.25"
   inkscape:showpageshadow="2"
   inkscape:pageopacity="0.0"
   inkscape:pagecheckerboard="0"
   inkscape:deskcolor="#d1d1d1"
   showgrid="false"
   inkscape:zoom="0.93360192"
   inkscape:cx="227.07751"
   inkscape:cy="345.97187"
   inkscape:window-width="1600"
   inkscape:window-height="816"
   inkscape:window-x="0"
   inkscape:window-y="84"
   inkscape:window-maximized="1"
   inkscape:current-layer="g2143" />
<circle
   style="display:inline;fill:#393a59"
   cx="256"
   cy="256"
   r="256"
   id="circle2"
   inkscape:label="big-circle" />
<path
   style="display:inline;fill:#6a6577"
   d="m 469.953,214.521 c 0,60.932 -25.4,115.928 -66.194,154.979 -13.511,12.941 -28.719,24.123 -45.25,33.193 -30.584,16.794 -65.722,26.346 -103.074,26.346 -37.353,0 -72.472,-9.544 -103.057,-26.338 -4.93,-2.697 -9.736,-5.586 -14.412,-8.659 C 126.934,386.819 116.61,378.588 107.119,369.499 66.325,330.456 40.915,275.452 40.915,214.52 40.915,96.044 136.959,0 255.435,0 373.911,0 469.953,96.045 469.953,214.521 Z"
   id="path4"
   inkscape:label="mini-circle" />
<g
   id="g12"
   style="display:inline"
   inkscape:label="bats">
	<path
   style="fill:#393a59"
   d="m 186.159,233.576 c -11.975,2.226 -22.413,10.7 -26.582,23.071 -1.526,4.545 -2.058,9.185 -1.703,13.688 0.115,1.609 0.355,3.197 0.69,4.765 -0.533,-0.063 -1.066,-0.104 -1.599,-0.136 -0.46,-0.021 -0.92,-0.042 -1.369,-0.052 -11.588,-0.303 -22.747,4.232 -30.845,12.288 -2.675,2.675 -5.026,5.726 -6.928,9.122 -1.285,2.278 -2.382,4.723 -3.239,7.293 -3.877,11.536 -2.487,23.573 2.884,33.489 l -0.46,0.23 c -4.671,-10.271 -13.406,-18.651 -24.952,-22.528 -18.422,-6.186 -38.118,1.076 -48.431,16.488 -0.293,0.449 -0.585,0.899 -0.867,1.358 -3.939,-4.618 -9.143,-8.255 -15.308,-10.334 -6.363,-2.132 -12.915,-2.32 -19.007,-0.888 -1.254,-4.733 -2.361,-9.509 -3.344,-14.346 l 20.292,-37.71 7.659,7.774 c 9.446,9.592 23.97,12.027 36.018,6.029 l -10.031,-20.187 6.165,1.4 c 10.397,2.382 21.023,-2.905 25.412,-12.622 l 2.601,-5.768 10.031,20.198 c 8.923,-4.441 14.984,-12.737 16.739,-22.152 0.616,-3.302 0.711,-6.75 0.199,-10.209 l -1.567,-10.804 4.765,0.742 z"
   id="path6" />
	<path
   style="fill:#393a59"
   d="m 472.886,320.262 c -0.629,2.775 -4.416,3.193 -5.62,0.615 -3.543,-7.577 -9.82,-13.9 -18.16,-17.353 -4.432,-1.834 -9.025,-2.681 -13.538,-2.636 -1.616,0.008 -3.216,0.136 -4.798,0.371 0.092,-0.531 0.168,-1.06 0.237,-1.592 0.057,-0.456 0.11,-0.91 0.153,-1.36 1.089,-11.544 -2.679,-22.988 -10.172,-31.607 -2.476,-2.858 -5.366,-5.402 -8.626,-7.536 -2.189,-1.44 -4.548,-2.694 -7.058,-3.731 -11.247,-4.649 -23.343,-4.074 -33.604,0.609 l -0.2,-0.481 c 10.563,-3.955 19.516,-12.106 24.168,-23.356 7.429,-17.961 1.525,-38.105 -13.153,-49.44 -0.425,-0.327 -0.854,-0.647 -1.295,-0.957 4.873,-3.62 8.86,-8.562 11.351,-14.574 3.448,-8.342 3.405,-17.252 0.545,-25.112 -0.973,-2.675 1.997,-5.059 4.406,-3.544 l 44.58,28.043 c 1.706,1.074 1.886,3.493 0.356,4.807 l -5.199,4.466 c -9.359,8.034 -13.009,20.741 -9.585,32.374 0.505,1.717 2.381,2.626 4.034,1.94 l 12.074,-5.008 c 2.334,-0.969 4.744,1.211 4.016,3.63 l -0.002,0.007 c -3.075,10.212 1.472,21.174 10.872,26.211 v 0 c 2.229,1.192 2.069,4.439 -0.265,5.407 l -12.071,5.007 c -1.657,0.688 -2.33,2.662 -1.469,4.237 4.169,7.62 11.288,13.059 19.507,15.177 3.256,0.844 6.688,1.165 10.173,0.897 l 6.836,-0.526 c 2.009,-0.155 3.596,1.68 3.15,3.647 l -0.169,0.746 z"
   id="path8" />
	<path
   style="fill:#393a59"
   d="m 211.197,32.54 c 2.603,1.15 2.286,4.947 -0.475,5.634 -8.116,2.023 -15.527,6.968 -20.518,14.49 -2.65,3.998 -4.363,8.342 -5.187,12.779 -0.302,1.588 -0.485,3.183 -0.558,4.78 -0.503,-0.192 -1.008,-0.368 -1.517,-0.538 -0.437,-0.143 -0.872,-0.282 -1.305,-0.411 -11.12,-3.285 -23.074,-1.786 -32.972,3.913 -3.28,1.882 -6.332,4.229 -9.052,7.018 -1.833,1.872 -3.517,3.947 -5.018,6.21 -6.722,10.145 -8.481,22.127 -5.856,33.095 l -0.51,0.103 C 126.376,108.488 120.096,98.136 109.95,91.409 93.751,80.67 72.847,82.596 58.904,94.824 58.502,95.179 58.105,95.538 57.716,95.911 55.1,90.433 51.015,85.572 45.592,81.973 38.068,76.988 29.315,75.318 21.052,76.615 18.24,77.056 16.47,73.683 18.42,71.61 L 54.502,33.248 c 1.381,-1.469 3.79,-1.181 4.786,0.573 l 3.384,5.96 c 6.088,10.728 17.857,16.75 29.931,15.623 1.782,-0.166 3.034,-1.833 2.679,-3.586 L 92.685,39.007 c -0.502,-2.476 2.099,-4.423 4.334,-3.243 l 0.007,0.004 c 9.431,4.979 21.063,2.622 27.811,-5.636 v 0 c 1.598,-1.958 4.753,-1.179 5.256,1.299 l 2.596,12.807 c 0.356,1.759 2.165,2.798 3.876,2.256 8.28,-2.628 14.984,-8.57 18.64,-16.23 1.453,-3.033 2.428,-6.34 2.834,-9.812 l 0.797,-6.81 c 0.234,-2.002 2.34,-3.206 4.184,-2.392 l 0.7,0.309 z"
   id="path10" />
</g>



<g
   id="g2143"
   style="display:inline"
   inkscape:label="overcoat"><path
     style="display:none;fill:#282942"
     d="m 432.995,440.947 c -16.123,15.444 -34.273,28.787 -54,39.612 C 342.497,500.6 300.565,512 255.99,512 211.415,512 169.504,500.611 133.006,480.569 113.278,469.754 95.128,456.401 78.995,440.946 95.369,399.38 135.19,369.621 182.168,367.949 c 1.379,-0.063 2.779,-0.094 4.18,-0.094 h 139.295 c 1.4,0 2.8,0.031 4.18,0.094 46.978,1.673 86.799,31.432 103.172,72.998 z"
     id="path14"
     inkscape:label="dracula-coat" /><path
     style="display:inline;fill:#282942;fill-opacity:1"
     d="m 549.23227,332.51549 c -18.29765,15.21051 -39.94447,32.32905 -61.76604,49.18661 -14.45349,11.1656 -28.97391,22.21312 -42.62322,32.50053 -13.64931,10.28741 -26.42868,19.81648 -37.40102,27.95024 -21.94468,16.26752 -36.66167,26.95146 -36.66167,26.95146 0,0 -101.92909,-74.03943 -169.2554,-129.06817 -23.06349,27.82888 -51.85194,66.72971 -73.68654,109.89681 a 340.03102,340.03102 0 0 0 242.95491,103.3334 340.03102,340.03102 0 0 0 252.20853,-112.58702 c -19.33168,-39.70432 -45.66008,-74.17167 -66.72103,-99.05811 -2.41155,-3.04212 -4.66277,-6.07882 -7.04852,-9.10575 z"
     id="path2469"
     transform="matrix(0.75287248,0,0,0.75287248,-23.160063,95.460975)"
     inkscape:label="tux-coat" /><path
     style="display:inline;fill:#d863bb"
     d="m 255.99,448.637 c 0,0 177.292,-128.708 170.921,-140.293 -9.517,-17.313 -23.649,-29.124 -37.607,-37.138 -23.432,-13.446 -46.411,-16.174 -46.411,-16.174 L 201.766,374.811 Z"
     id="path16" /><path
     style="display:inline;fill:#d863bb"
     d="m 255.99,448.637 c 0,0 -177.292,-128.708 -170.921,-140.293 9.517,-17.313 23.649,-29.124 37.607,-37.138 23.432,-13.446 46.411,-16.174 46.411,-16.174 z"
     id="path20" /><path
     style="display:inline;fill:#282942"
     d="m 255.99,448.637 c 0,0 177.292,-128.708 170.921,-140.293 -9.517,-17.313 -23.649,-29.124 -37.607,-37.138 14.271,15.792 27.977,39.815 6.892,60.89 -3.406,3.406 -7.154,5.713 -11.146,7.101 -13.939,4.847 -26.906,12.126 -37.591,22.305 z"
     id="path18" /><path
     style="display:inline;fill:#282942"
     d="m 255.99,448.637 c 0,0 -177.292,-128.708 -170.921,-140.293 9.517,-17.313 23.649,-29.124 37.607,-37.138 -14.271,15.792 -27.977,39.815 -6.892,60.89 3.406,3.406 7.154,5.713 11.146,7.101 13.939,4.847 26.906,12.126 37.591,22.305 z"
     id="path84" /><path
     id="path1083"
     style="display:inline;fill:#ededed;fill-opacity:1"
     d="m 511.23198,378.50082 c -3.91,-0.16 -3.52984,3.25837 4.34014,10.89837 15.4727,14.23487 45.3906,57.74399 45.61177,104.98074 a 340.03102,340.03102 0 0 0 10.7479,-8.04471 c -0.52964,-3.02703 -0.98099,-6.0724 -1.69144,-9.05646 -10.10098,-42.45992 -37.86843,-80.06798 -59.00837,-98.77794 z m -312.19493,14.54845 c -0.27051,-0.008 -0.65379,0.17682 -1.13627,0.53182 -12.34882,20.13992 -30.66822,50.57456 -41.14191,83.10099 a 340.03102,340.03102 0 0 0 6.77354,5.07172 c 4.56549,-21.93484 13.42709,-41.2038 19.8277,-53.33219 13.92998,-25.86496 17.57049,-35.31656 15.67694,-35.37234 z"
     transform="matrix(0.75287248,0,0,0.75287248,-23.160063,95.460975)"
     inkscape:label="arm-separator" /></g>














<g
   id="g2547"
   style="display:none"
   inkscape:label="dracula"><g
     id="g28"
     style="display:inline">
	<path
   style="fill:#cccccc"
   d="m 402.659,149.703 -48.834,28.801 v 58.586 c 0,13.485 10.932,24.417 24.417,24.417 v 0 c 13.485,0 24.417,-10.932 24.417,-24.417 z"
   id="path22" />
	<path
   style="fill:#cccccc"
   d="m 109.318,149.703 48.834,28.801 v 58.586 c 0,13.485 -10.932,24.417 -24.417,24.417 v 0 c -13.485,0 -24.417,-10.932 -24.417,-24.417 z"
   id="path24" />
	<path
   style="fill:#cccccc"
   d="m 310.221,308.199 v 58.253 c 0,29.949 -24.278,54.227 -54.227,54.227 v 0 c -29.949,0 -54.227,-24.278 -54.227,-54.227 v -58.253 z"
   id="path26" />
</g><path
     style="display:inline;fill:#ededed"
     d="m 376.728,145.053 v 102.379 c 0,33.343 -13.511,63.53 -35.349,85.368 -21.87,21.87 -52.046,35.37 -85.389,35.37 -66.685,0 -120.738,-54.053 -120.738,-120.738 V 145.053 c 0,-5.507 0.366,-10.94 1.087,-16.248 2.215,-16.52 7.784,-31.974 15.997,-45.672 21.076,-35.234 186.243,-35.234 207.308,0 8.213,13.699 13.782,29.153 15.997,45.672 0.721,5.308 1.087,10.741 1.087,16.248 z"
     id="path30" /><path
     style="fill:#cccccc"
     d="M 170.231,247.433 V 145.055 c 0,-60.739 44.86,-110.987 103.251,-119.463 -5.712,-0.83 -11.549,-1.277 -17.493,-1.277 -66.681,0 -120.74,54.059 -120.74,120.74 v 102.378 c 0,66.681 54.059,120.74 120.74,120.74 5.943,0 11.78,-0.448 17.494,-1.277 C 215.091,358.42 170.231,308.172 170.231,247.433 Z"
     id="path32" /><g
     id="g38">
	<path
   style="fill:#393a59"
   d="m 316.094,223.664 v -23.14 c 0,-6.035 -4.892,-10.928 -10.928,-10.928 v 0 c -6.035,0 -10.928,4.892 -10.928,10.928 v 23.14 c 0,6.035 4.892,10.928 10.928,10.928 v 0 c 6.036,-0.001 10.928,-4.893 10.928,-10.928 z"
   id="path34" />
	<path
   style="fill:#393a59"
   d="m 195.892,200.523 v 23.14 c 0,6.035 4.892,10.928 10.928,10.928 v 0 c 6.035,0 10.928,-4.892 10.928,-10.928 v -23.14 c 0,-6.035 -4.892,-10.928 -10.928,-10.928 v 0 c -6.036,0.001 -10.928,4.893 -10.928,10.928 z"
   id="path36" />
</g><g
     id="g48">
	<circle
   style="fill:#7f7d89"
   cx="308.95499"
   cy="204.58099"
   r="7.1399999"
   id="circle40" />
	<circle
   style="fill:#7f7d89"
   cx="210.61"
   cy="204.58099"
   r="7.1399999"
   id="circle42" />
	<circle
   style="fill:#7f7d89"
   cx="300.97198"
   cy="221.539"
   r="4.105"
   id="circle44" />
	<circle
   style="fill:#7f7d89"
   cx="202.63699"
   cy="221.539"
   r="4.105"
   id="circle46" />
</g><g
     id="g54">
	<path
   style="fill:#282942"
   d="m 161.949,128.805 c 0,1.261 0.049,2.511 0.147,3.748 1.162,14.771 -4.176,29.397 -15.378,39.096 -3.501,3.032 -7.346,5.679 -11.467,7.876 v -34.471 c 0,-22.643 6.228,-43.813 17.084,-61.921 6.562,7.304 11.41,16.175 13.928,25.987 -2.768,5.986 -4.314,12.663 -4.314,19.685 z"
   id="path50" />
	<path
   style="fill:#282942"
   d="m 376.728,145.053 v 34.471 c -4.121,-2.197 -7.965,-4.844 -11.467,-7.876 -11.2,-9.699 -16.54,-24.325 -15.378,-39.096 0.097,-1.237 0.147,-2.487 0.147,-3.748 0,-7.022 -1.546,-13.699 -4.315,-19.686 2.518,-9.812 7.367,-18.683 13.928,-25.987 10.857,18.109 17.085,39.279 17.085,61.922 z"
   id="path52" />
</g><g
     id="g60">
	
		<rect
   x="182.185"
   y="176.161"
   transform="matrix(-0.9327,-0.3606,0.3606,-0.9327,329.4594,440.9586)"
   style="fill:#ededed"
   width="47.363998"
   height="27.167"
   id="rect56" />
	
		<rect
   x="282.448"
   y="176.17101"
   transform="matrix(0.9327,-0.3606,0.3606,0.9327,-47.8298,123.1597)"
   style="fill:#ededed"
   width="47.363998"
   height="27.167"
   id="rect58" />
</g><path
     style="display:inline;fill:#393a59"
     d="m 313.114,257.672 c 0,19.498 -9.77,36.718 -24.691,47.02 -9.216,6.374 -20.386,10.104 -32.434,10.104 -12.048,0 -23.218,-3.73 -32.434,-10.104 -14.921,-10.303 -24.691,-27.523 -24.691,-47.02 5.287,2.644 10.721,4.901 16.248,6.771 5.789,1.954 11.682,3.49 17.627,4.587 7.68,1.421 15.464,2.132 23.249,2.132 7.784,0 15.569,-0.711 23.249,-2.132 5.945,-1.097 11.839,-2.633 17.627,-4.587 5.529,-1.871 10.963,-4.128 16.25,-6.771 z"
     id="path62" /><path
     style="display:inline;fill:#e87bc2"
     d="m 288.423,304.692 c -9.216,6.374 -20.386,10.104 -32.434,10.104 -12.048,0 -23.218,-3.73 -32.434,-10.104 9.216,-6.374 20.386,-10.104 32.434,-10.104 12.048,0 23.218,3.73 32.434,10.104 z"
     id="path64" /><path
     style="display:inline;fill:#cccccc"
     d="M 323.306,169.904 H 188.673 l 37.765,28.32 h 4.165 c 7.278,0 13.178,5.899 13.178,13.178 v 20.435 c 0,6.725 5.261,12.493 11.984,12.616 6.849,0.125 12.442,-5.39 12.442,-12.211 v -20.84 c 0,-7.278 5.9,-13.178 13.178,-13.178 h 4.157 z"
     id="path66" /><g
     id="g72"
     style="display:inline">
	<path
   style="fill:#f0f0f0"
   d="m 296.866,264.443 c -0.627,4.807 -1.714,9.352 -2.905,13.333 -2.675,8.944 -5.925,15.078 -5.925,15.078 l -5.611,-15.193 -3.187,-8.631 c 5.946,-1.097 11.839,-2.633 17.628,-4.587 z"
   id="path68" />
	<path
   style="fill:#f0f0f0"
   d="m 232.741,269.03 -3.187,8.631 -5.611,15.193 c 0,0 -3.25,-6.134 -5.925,-15.078 -1.191,-3.981 -2.278,-8.526 -2.905,-13.333 5.789,1.954 11.682,3.49 17.628,4.587 z"
   id="path70" />
</g><g
     id="g78">
	<path
   style="fill:#393a59"
   d="m 169.618,177.742 10.334,-16.078 c 1.844,-2.869 5.666,-3.701 8.536,-1.857 l 42.28,27.176 c 5.771,3.709 2.098,12.656 -4.615,11.24 l -52.614,-11.098 c -4.231,-0.892 -6.259,-5.744 -3.921,-9.383 z"
   id="path74" />
	<path
   style="fill:#393a59"
   d="m 342.361,177.742 -10.334,-16.078 c -1.844,-2.869 -5.666,-3.701 -8.536,-1.857 l -42.28,27.176 c -5.771,3.709 -2.098,12.656 4.614,11.24 l 52.614,-11.098 c 4.232,-0.892 6.26,-5.744 3.922,-9.383 z"
   id="path76" />
</g><g
     id="g86">
	<path
   style="fill:#282942"
   d="M 359.643,83.132 C 338.578,47.898 300.042,24.315 255.989,24.315 c -44.042,0 -82.578,23.583 -103.654,58.817 -8.213,13.699 -13.782,29.153 -15.997,45.672 h 25.61 c 0,-25.966 21.055,-47.02 47.02,-47.02 0.631,0 1.26,0.013 1.885,0.038 22.046,0.87 39.219,19.546 39.219,41.61 v 6.424 c 0,3.267 2.649,5.916 5.916,5.916 v 0 c 3.267,0 5.916,-2.649 5.916,-5.916 v -6.424 c 0,-22.064 17.173,-40.74 39.219,-41.61 0.625,-0.025 1.254,-0.038 1.885,-0.038 25.966,0 47.02,21.055 47.02,47.02 h 25.61 c -2.212,-16.519 -7.782,-31.973 -15.995,-45.672 z"
   id="path82" />
	
</g><g
     id="g94">
	<path
   style="fill:#e87bc2"
   d="m 298.436,441.095 -39.554,14.658 c -1.863,0.691 -3.912,0.691 -5.775,0 l -39.554,-14.658 c -5.427,-2.011 -11.197,2.004 -11.197,7.792 v 24.39 c 0,5.788 5.77,9.803 11.197,7.792 l 39.554,-14.658 c 1.863,-0.691 3.912,-0.691 5.775,0 l 39.554,14.658 c 5.427,2.011 11.197,-2.004 11.197,-7.792 v -24.39 c 0,-5.788 -5.769,-9.803 -11.197,-7.792 z"
   id="path88" />
	<path
   style="fill:#e87bc2"
   d="m 293.961,277.776 c -2.675,8.944 -5.925,15.078 -5.925,15.078 l -5.611,-15.193 c 1.745,-0.648 3.636,-1.003 5.611,-1.003 2.09,0 4.086,0.397 5.925,1.118 z"
   id="path90" />
	<path
   style="fill:#e87bc2"
   d="m 229.554,277.661 -5.611,15.193 c 0,0 -3.25,-6.134 -5.925,-15.078 1.839,-0.721 3.835,-1.118 5.925,-1.118 1.974,0 3.866,0.355 5.611,1.003 z"
   id="path92" />
</g><path
     style="display:inline;fill:#cccccc"
     d="m 269.225,335.694 h -26.47 c -2.693,0 -4.877,-2.183 -4.877,-4.877 v 0 c 0,-2.693 2.183,-4.877 4.877,-4.877 h 26.47 c 2.693,0 4.877,2.183 4.877,4.877 v 0 c -10e-4,2.695 -2.184,4.877 -4.877,4.877 z"
     id="path80"
     inkscape:label="path80" /></g>















<g
   id="g653"
   transform="matrix(0.75287248,0,0,0.75287248,-23.160063,95.460975)"
   clip-path="url(#clipPath2571)"
   style="display:inline"
   inkscape:label="tux"><path
     fill="#000000"
     d="m 683.91,677.74 c -0.01,-0.01 -0.021,-0.021 -0.021,-0.03 -6.069,-6.85 -8.96,-19.55 -12.069,-33.08 -3.101,-13.52 -6.57,-28.1 -17.67,-37.55 -0.021,-0.021 -0.051,-0.04 -0.07,-0.061 -2.2,-1.92 -4.46,-3.539 -6.73,-4.89 -2.279,-1.35 -4.59,-2.45 -6.899,-3.32 15.43,-45.76 9.38,-91.329 -6.2,-132.5 -19.11,-50.54 -52.48,-94.569 -77.97,-124.689 C 527.751,305.63 499.85,271.47 500.401,221.01 501.25,144 508.87,1.19 373.35,1 367.84,0.99 362.09,1.22 356.1,1.7 204.66,13.89 244.83,173.89 242.58,227.46 c -2.77,39.18 -10.71,70.06 -37.66,108.36 -31.65,37.64 -76.23,98.57 -97.34,162 -9.96,29.93 -14.7,60.439 -10.33,89.319 -1.37,1.23 -2.67,2.521 -3.92,3.841 -9.29,9.93 -16.16,21.949 -23.81,30.039 -7.15,7.141 -17.33,9.851 -28.53,13.86 -11.2,4.021 -23.49,9.94 -30.95,24.26 0,0 0,0.011 -0.01,0.011 -0.01,0.02 -0.02,0.05 -0.04,0.069 -3.51,6.55 -4.65,13.62 -4.65,20.79 0,6.63 0.98,13.351 1.97,19.82 2.06,13.46 4.15,26.189 1.38,34.81 -8.86,24.23 -10,40.98 -3.76,53.141 6.26,12.18 19.11,17.55 33.64,20.59 29.06,6.06 68.41,4.56 99.42,21 l 2.67,-5.03 -2.64,5.04 c 33.2,17.36 66.86,23.521 93.71,17.39 19.48,-4.439 35.28,-16.039 43.4,-33.88 21,-0.1 44.05,-9 80.97,-11.029 25.05,-2.021 56.34,8.899 92.33,6.899 0.94,3.9 2.301,7.66 4.16,11.23 0.021,0.029 0.04,0.069 0.061,0.1 13.949,27.9 39.869,40.66 67.5,38.48 27.659,-2.181 57.069,-18.49 80.85,-46.78 l -4.36,-3.66 4.391,3.62 c 22.66,-27.48 60.27,-38.87 85.22,-53.91 12.47,-7.52 22.58,-16.939 23.37,-30.62 0.778,-13.67 -7.252,-28.99 -25.712,-49.48 z"
     id="path3"
     style="display:inline;fill:#282942;fill-opacity:1" /><path
     fill="#D6A312"
     d="m 698.24,726.57 c -0.48,8.439 -6.59,14.71 -17.88,21.51 -22.561,13.61 -62.551,25.45 -88.08,56.38 -22.181,26.39 -49.221,40.88 -73.03,42.76 -23.809,1.88 -44.35,-8 -56.47,-32.31 l -0.021,-0.05 -0.029,-0.061 c -7.521,-14.3 -4.391,-36.85 1.939,-60.649 6.33,-23.79 15.43,-48.23 16.65,-68.08 v -0.061 c 1.279,-25.439 2.71,-47.66 6.979,-64.81 4.28,-17.15 11.01,-28.75 22.931,-35.28 0.56,-0.3 1.109,-0.59 1.659,-0.86 1.351,22.03 12.261,44.511 31.54,49.37 21.101,5.561 51.511,-12.54 64.351,-27.31 2.569,-0.101 5.069,-0.23 7.5,-0.29 11.27,-0.271 20.71,0.38 30.37,8.82 l 0.029,0.029 0.03,0.021 c 7.42,6.29 10.95,18.17 14.01,31.47 3.061,13.311 5.5,27.8 14.681,38.13 l 0.01,0.01 0.01,0.021 c 17.641,19.57 23.311,32.79 22.821,41.24 z"
     id="path5"
     style="fill:#f8bf11;fill-opacity:1" /><path
     fill="#D6A312"
     d="m 269.49,788.95 -0.01,0.06 v 0.07 c -2.04,26.74 -17.12,41.3 -40.28,46.59 -23.14,5.29 -54.53,0.021 -85.87,-16.37 -0.01,0 -0.02,-0.01 -0.03,-0.01 C 108.62,800.92 67.37,802.75 40.9,797.22 27.67,794.46 19.03,790.3 15.07,782.58 c -3.96,-7.73 -4.05,-21.2 4.37,-44.17 l 0.04,-0.101 0.03,-0.1 c 4.17,-12.85 1.08,-26.91 -0.94,-40.11 -2.02,-13.189 -3.01,-25.199 1.5,-33.56 l 0.04,-0.08 c 5.77,-11.12 14.23,-15.1 24.73,-18.86 10.51,-3.77 22.96,-6.729 32.79,-16.59 l 0.06,-0.05 0.05,-0.05 c 9.09,-9.59 15.92,-21.62 23.91,-30.15 6.74,-7.2 13.49,-11.97 23.66,-12.04 0.12,0.011 0.23,0.011 0.35,0 1.78,0.011 3.67,0.16 5.67,0.471 13.5,2.04 25.27,11.479 36.61,26.859 l 32.74,59.67 0.01,0.03 0.02,0.02 c 8.71,18.19 27.11,38.2 42.7,58.61 15.59,20.401 27.65,40.891 26.08,56.571 z"
     id="path7"
     style="fill:#f8bf11;fill-opacity:1" /><path
     d="m 432.77,232.69 c -2.63,-5.15 -8,-10.05 -17.14,-13.8 l -0.02,-0.01 -0.03,-0.01 c -19.01,-8.14 -27.26,-8.72 -37.87,-15.62 -17.27,-11.1 -31.54,-14.99 -43.4,-14.94 -6.21,0.02 -11.76,1.12 -16.73,2.84 -14.45,4.97 -24.04,15.34 -30.05,21.03 l -0.01,0.01 c 0,0.01 -0.01,0.01 -0.01,0.02 -1.18,1.12 -2.7,2.14 -6.38,4.84 -3.71,2.71 -9.27,6.79 -17.27,12.79 -7.11,5.33 -9.42,12.27 -6.96,20.4 2.45,8.13 10.29,17.51 24.63,25.62 l 0.02,0.02 0.03,0.01 c 8.9,5.23 14.98,12.28 21.96,17.89 3.49,2.8 7.16,5.3 11.58,7.19 4.42,1.89 9.58,3.17 16.04,3.55 15.16,0.88 26.32,-3.67 36.17,-9.31 9.87,-5.63 18.229,-12.52 27.82,-15.63 l 0.02,-0.01 0.021,-0.01 c 19.659,-6.14 33.68,-18.51 38.069,-30.26 2.2,-5.88 2.13,-11.46 -0.49,-16.61 z"
     id="path9"
     style="display:inline;fill:#f1fa8c;fill-opacity:1"
     fill="#D6A312" /><path
     d="m 382.89,261.71 c -15.64075,8.1527 -33.91,18.04 -53.35,18.04 -19.43,0 -34.78,-8.98 -45.82,-17.73 -5.52,-4.37 -10,-8.72 -13.38,-11.88 -5.86434,-4.62903 -5.16188,-11.12168 -2.75246,-10.93 4.03863,0.50418 4.64927,5.82168 7.19246,8.2 3.44,3.22 7.75,7.39 12.97,11.53 10.44,8.27 24.36,16.32 41.79,16.32 17.4,0 37.71174,-10.21517 50.11,-17.17 7.02421,-3.94024 15.96224,-11.0031 23.25658,-16.35742 5.58072,-4.09647 5.37722,-9.02921 9.98509,-8.49216 4.60786,0.53705 1.19917,5.45984 -5.25377,11.09153 -6.45295,5.63169 -16.54818,13.10397 -24.7479,17.37805 z"
     id="path11"
     inkscape:connector-curvature="0"
     style="display:none;fill:#202020;fill-opacity:1"
     sodipodi:nodetypes="sscccccssszzs" /><path
     fill="#ffffff"
     d="m 622.39,595.47 c -2.17,-0.08 -4.31,-0.069 -6.39,-0.02 -0.19,0.01 -0.38,0.01 -0.58,0.01 5.37,-16.96 -6.51,-29.47 -38.17,-43.79 -32.83,-14.439 -58.99,-13.01 -63.41,16.29 -0.28,1.53 -0.51,3.1 -0.68,4.68 -2.46,0.86 -4.92,1.94 -7.4,3.29 -15.41,8.44 -23.83,23.74 -28.51,42.521 -4.67,18.76 -6.02,41.43 -7.3,66.92 0,0.01 0,0.01 0,0.02 -0.79,12.811 -6.07,30.15 -11.41,48.511 -53.78,38.369 -128.42,54.989 -191.8,11.729 -4.29,-6.79 -9.22,-13.52 -14.29,-20.16 -3.24,-4.239 -6.57,-8.45 -9.87,-12.609 6.5,0.01 12.03,-1.061 16.5,-3.08 5.56,-2.53 9.46,-6.57 11.4,-11.771 3.86,-10.39 -0.02,-25.05 -12.39,-41.8 -12.37,-16.74 -33.32,-35.63 -64.1,-54.51 0,0 0,0 0,-0.01 -22.62,-14.07 -35.26,-31.311 -41.18,-50.03 -5.93,-18.73 -5.1,-38.98 -0.53,-58.97 8.76,-38.37 31.26,-75.69 45.62,-99.11 3.86,-2.84 1.38,5.28 -14.54,34.84 -14.26,27.021 -40.93,89.38 -4.42,138.061 0.98,-34.641 9.25,-69.971 23.14,-103.021 20.23,-45.85 62.54,-125.38 65.9,-188.76 1.74,1.26 7.69,5.28 10.34,6.79 0.01,0.01 0.01,0.01 0.02,0.01 7.76,4.57 13.59,11.25 21.14,17.32 7.57,6.08 17.02,11.33 31.3,12.16 1.37,0.08 2.71,0.12 4.02,0.12 14.72,0 26.2,-4.8 35.76,-10.27 10.391,-5.94 18.69,-12.52 26.561,-15.08 0.01,-0.01 0.02,-0.01 0.03,-0.01 16.63,-5.2 29.84,-14.4 37.359,-25.12 12.92,50.92 42.96,124.47 62.271,160.36 10.27,19.04 30.689,59.5 39.51,108.25 5.59,-0.171 11.75,0.64 18.34,2.329 23.07,-59.81 -19.56,-124.22 -39.06,-142.16 -7.87,-7.64 -8.25,-11.06 -4.34,-10.9 21.14,18.71 48.909,56.32 59.01,98.78 4.609,19.359 5.59,39.72 0.649,59.81 2.41,1 4.87,2.09 7.36,3.271 37.03,18.029 50.72,33.709 44.14,55.109 z"
     id="path13"
     style="display:inline;fill:#ededed;fill-opacity:1" /><path
     style="color:#000000;clip-rule:nonzero;display:inline;overflow:visible;visibility:visible;opacity:1;isolation:auto;mix-blend-mode:normal;color-interpolation:sRGB;color-interpolation-filters:linearRGB;solid-color:#000000;solid-opacity:1;fill:#e6e6e6;fill-opacity:1;fill-rule:nonzero;stroke:none;stroke-width:55;stroke-linecap:butt;stroke-linejoin:miter;stroke-miterlimit:4;stroke-dasharray:none;stroke-dashoffset:0;stroke-opacity:1;color-rendering:auto;image-rendering:auto;shape-rendering:auto;text-rendering:auto;enable-background:accumulate"
     d="M 358.49805,433.79492 A 170.49462,252.32961 0 0 0 200.24023,593.80078 l 3.75,2.33399 v 0.21093 c 28.8724,18.33237 49.43466,36.72462 62.14258,53.92188 v 0.002 h 0.002 c 13.4328,18.18913 19.41019,35.90489 13.71875,51.22461 l -0.002,0.006 -0.002,0.006 c -2.88145,7.72497 -9.02021,13.91561 -16.62695,17.37695 l -0.0137,0.006 -0.0117,0.006 c -0.79947,0.3611 -1.65356,0.62815 -2.48243,0.9375 4.54997,5.96908 9.00675,12.1187 13.11328,18.43555 57.98757,38.59259 125.4446,24.31407 176.07032,-10.60156 4.94427,-17.03749 9.44725,-32.92522 10.0664,-42.85743 1.28175,-25.52074 2.56911,-48.63589 7.58204,-68.77343 v -0.002 c 5.0523,-20.27506 14.88024,-38.72623 33.41015,-48.875 l 0.01,-0.006 0.0117,-0.006 c 1.04138,-0.56688 2.08695,-0.89791 3.13086,-1.39062 0.33429,-2.00496 0.79807,-3.93526 1.36132,-5.79688 A 170.49462,252.32961 0 0 0 358.49805,433.79492 Z m 145.50586,132.36524 -0.0527,0.30859 c 0.005,-0.0353 0.0184,-0.0664 0.0234,-0.10156 0.0122,-0.0678 0.0169,-0.13943 0.0293,-0.20703 z"
     id="path4166" /><path
     d="m 434.51,174.03 c 0.08,10.09 -1.66,18.68 -5.49,27.45 -2.18,5 -4.689,9.2 -7.699,12.84 -1.021,-0.49 -2.08,-0.96 -3.181,-1.41 -3.81,-1.63 -7.18,-2.97 -10.199,-4.11 -3.021,-1.14 -5.37791,-1.91895 -7.80891,-2.75895 1.761,-2.13 5.23,-4.64 6.521,-7.79 1.96,-4.75 2.92,-9.39 3.1,-14.92 0,-0.22 0.07,-0.41 0.07,-0.67 0.11,-5.3 -0.59,-9.83 -2.14,-14.47 -1.62,-4.87 -3.681,-8.37 -6.66,-11.28 -2.99,-2.91 -5.97,-4.23 -9.55,-4.35 -0.17,-0.01 -0.33,-0.01 -0.5,-0.01 -3.36,0.01 -6.28,1.17 -9.301,3.69 -3.17,2.65 -5.52,6.04 -7.479,10.76 -1.95,4.72 -2.91,9.4 -3.101,14.96 -0.029,0.22 -0.029,0.41 -0.029,0.63 -0.07,3.06 0.13,5.86 0.6,8.58 -6.88,-3.43 -15.68209,-5.93105 -21.76209,-7.38105 -0.35,-2.63 -0.55,-5.34 -0.61,-8.18 v -0.77 c -0.11,-10.06 1.54,-18.69 5.41,-27.45 3.87,-8.77 8.66,-15.07 15.399,-20.2 6.75,-5.12 13.381,-7.47 21.23,-7.55 h 0.37 c 7.68,0 14.25,2.26 21,7.15 6.85,4.98 11.79,11.2 15.77,19.9 3.9,8.48 5.78,16.77 5.971,26.6 -10e-4,0.26 -10e-4,0.48 0.069,0.74 z"
     id="path15"
     inkscape:connector-curvature="0"
     style="fill:#ededed;fill-opacity:1"
     sodipodi:nodetypes="ccccccccccccccccccccccccscccc" /><path
     d="m 318.43,184.08 c -1.01,0.29 -1.99,0.6 -2.96,0.93 -5.5,1.9 -9.86686,3.99686 -14.08686,6.78686 0.41,-2.92 0.47,-5.88 0.15,-9.19 -0.03,-0.18 -0.03,-0.33 -0.03,-0.51 -0.44,-4.39 -1.37,-8.07 -2.92,-11.79 -1.65,-3.87 -3.5,-6.6 -5.93,-8.7 -2.2,-1.9 -4.28,-2.78 -6.58,-2.76 -0.23,0 -0.47,0.01 -0.71,0.03 -2.58,0.22 -4.72,1.48 -6.75,3.95 -2.02,2.46 -3.35,5.52 -4.31,9.58 -0.96,4.05 -1.21,8.03 -0.81,12.6 0,0.18 0.04,0.33 0.04,0.51 0.44,4.43 1.33,8.11 2.91,11.83 1.62,3.83 3.5,6.56 5.93,8.66 0.41,0.35 0.81,0.67 1.21,0.95 -2.52,1.95 -4.21314,3.33314 -6.29314,4.85314 -1.33,0.97 -2.91,2.13 -4.75,3.49 -4.01,-3.76 -7.14,-8.48 -9.88,-14.71 -3.24,-7.36 -4.97,-14.73 -5.49,-23.43 v -0.07 c -0.48,-8.7 0.37,-16.18 2.76,-23.92 2.4,-7.74 5.6,-13.34 10.25,-17.94 4.64,-4.61 9.32,-6.93 14.96,-7.22 0.44,-0.02 0.87,-0.03 1.3,-0.03 5.11,0.01 9.67,1.71 14.39,5.48 5.12,4.09 8.99,9.32 12.23,16.69 3.25,7.37 4.98,14.74 5.46,23.44 v 0.07 c 0.23,3.65 0.2,7.09 -0.09,10.42 z"
     id="path17"
     inkscape:connector-curvature="0"
     style="fill:#ededed;fill-opacity:1"
     sodipodi:nodetypes="cccccccccccccccccccccccccccccc" /><path
     sodipodi:nodetypes="aaaaaaa"
     inkscape:connector-curvature="0"
     id="path28396-7"
     d="m 344.08661,204.88969 c 0.64684,2.07624 3.99301,1.73211 5.92629,2.72792 1.69642,0.87378 3.06086,2.78891 4.96829,2.84398 1.82043,0.0526 4.65359,-0.63043 4.89041,-2.43615 0.31286,-2.38563 -3.17083,-3.90165 -5.41255,-4.77563 -2.88469,-1.12471 -6.58056,-1.69534 -9.28659,-0.19073 -0.6201,0.34477 -1.29689,1.15328 -1.08585,1.83064 z"
     style="opacity:1;fill:#393a59;fill-opacity:1;stroke:none;stroke-width:1.00016938;stroke-dasharray:none" /><path
     style="opacity:1;fill:#393a59;fill-opacity:1;stroke:none;stroke-width:1.00016938;stroke-dasharray:none"
     d="m 324.32226,204.88969 c -0.64684,2.07624 -3.99301,1.73211 -5.92629,2.72792 -1.69642,0.87378 -3.06086,2.78891 -4.96829,2.84398 -1.82043,0.0526 -4.65359,-0.63043 -4.89041,-2.43615 -0.31286,-2.38563 3.17083,-3.90165 5.41255,-4.77563 2.88469,-1.12471 6.58056,-1.69534 9.28659,-0.19073 0.6201,0.34477 1.29689,1.15328 1.08585,1.83064 z"
     id="path5461"
     inkscape:connector-curvature="0"
     sodipodi:nodetypes="aaaaaaa"
     inkscape:label="path5461" /></g><path
   style="enable-background:new 0 0 512 512;display:inline;fill:#e87bc2"
   d="m 298.436,441.095 -39.554,14.658 c -1.863,0.691 -3.912,0.691 -5.775,0 l -39.554,-14.658 c -5.427,-2.011 -11.197,2.004 -11.197,7.792 v 24.39 c 0,5.788 5.77,9.803 11.197,7.792 l 39.554,-14.658 c 1.863,-0.691 3.912,-0.691 5.775,0 l 39.554,14.658 c 5.427,2.011 11.197,-2.004 11.197,-7.792 v -24.39 c 0,-5.788 -5.769,-9.803 -11.197,-7.792 z"
   id="path2575"
   inkscape:label="bow" /><path
   style="enable-background:new 0 0 512 512;display:inline;fill:#393a59"
   d="m 313.114,257.672 c 0,19.498 -9.77,36.718 -24.691,47.02 -9.216,6.374 -20.386,10.104 -32.434,10.104 -12.048,0 -23.218,-3.73 -32.434,-10.104 -14.921,-10.303 -24.691,-27.523 -24.691,-47.02 5.287,2.644 10.721,4.901 16.248,6.771 5.789,1.954 11.682,3.49 17.627,4.587 7.68,1.421 15.464,2.132 23.249,2.132 7.784,0 15.569,-0.711 23.249,-2.132 5.945,-1.097 11.839,-2.633 17.627,-4.587 5.529,-1.871 10.963,-4.128 16.25,-6.771 z"
   id="path8806"
   transform="matrix(0.91091197,0,0,0.65970198,-1.6554081,103.5456)" /><path
   style="enable-background:new 0 0 512 512;display:inline;fill:#e87bc2"
   d="m 288.423,304.692 c -9.216,6.374 -20.386,10.104 -32.434,10.104 -12.048,0 -23.218,-3.73 -32.434,-10.104 9.216,-6.374 20.386,-10.104 32.434,-10.104 12.048,0 23.218,3.73 32.434,10.104 z"
   id="path8808"
   transform="matrix(0.91091197,0,0,0.65970198,-1.6554081,103.5456)" /><g
   id="g2581"
   style="display:inline"
   inkscape:label="teeth"
   transform="matrix(0.91091197,0,0,0.65970198,-3.3545664,103.3652)">
	
	<g
   id="g2622"
   inkscape:label="tooth2"><path
     style="display:inline;fill:#f0f0f0"
     d="m 296.866,264.443 c -0.627,4.807 -1.714,9.352 -2.905,13.333 -2.675,8.944 -5.925,15.078 -5.925,15.078 l -5.611,-15.193 -3.187,-8.631 c 5.946,-1.097 11.839,-2.633 17.628,-4.587 z"
     id="path2601" /><path
     style="display:inline;fill:#e87bc2"
     d="m 293.961,277.776 c -2.675,8.944 -5.925,15.078 -5.925,15.078 l -5.611,-15.193 c 1.745,-0.648 3.636,-1.003 5.611,-1.003 2.09,0 4.086,0.397 5.925,1.118 z"
     id="path2577" /></g>
	<g
   id="g2626"
   inkscape:label="tooth1"><path
     style="display:inline;fill:#f0f0f0"
     d="m 232.741,269.03 -3.187,8.631 -5.611,15.193 c 0,0 -3.25,-6.134 -5.925,-15.078 -1.191,-3.981 -2.278,-8.526 -2.905,-13.333 5.789,1.954 11.682,3.49 17.628,4.587 z"
     id="path2603" /><path
     style="fill:#e87bc2"
     d="m 229.554,277.661 -5.611,15.193 c 0,0 -3.25,-6.134 -5.925,-15.078 1.839,-0.721 3.835,-1.118 5.925,-1.118 1.974,0 3.866,0.355 5.611,1.003 z"
     id="path2579" /></g>
</g></svg>
